G04 #@! TF.GenerationSoftware,KiCad,Pcbnew,(5.1.2-1)-1*
G04 #@! TF.CreationDate,2020-04-22T00:13:43-04:00*
G04 #@! TF.ProjectId,raspberry_pi_zero_mono_audio_out,72617370-6265-4727-9279-5f70695f7a65,rev?*
G04 #@! TF.SameCoordinates,Original*
G04 #@! TF.FileFunction,Legend,Top*
G04 #@! TF.FilePolarity,Positive*
%FSLAX46Y46*%
G04 Gerber Fmt 4.6, Leading zero omitted, Abs format (unit mm)*
G04 Created by KiCad (PCBNEW (5.1.2-1)-1) date 2020-04-22 00:13:43*
%MOMM*%
%LPD*%
G04 APERTURE LIST*
%ADD10C,0.050800*%
%ADD11C,0.127000*%
%ADD12C,0.120000*%
%ADD13C,0.150000*%
%ADD14O,1.626000X3.404000*%
%ADD15O,3.404000X1.626000*%
%ADD16O,1.702000X1.702000*%
%ADD17C,1.702000*%
%ADD18O,1.802000X1.802000*%
%ADD19R,1.802000X1.802000*%
%ADD20R,1.702000X1.702000*%
G04 APERTURE END LIST*
D10*
X159533771Y-93675200D02*
X159533771Y-94023542D01*
X159533771Y-93849371D02*
X158924171Y-93849371D01*
X159011257Y-93907428D01*
X159069314Y-93965485D01*
X159098342Y-94023542D01*
X158924171Y-93123657D02*
X158924171Y-93413942D01*
X159214457Y-93442971D01*
X159185428Y-93413942D01*
X159156400Y-93355885D01*
X159156400Y-93210742D01*
X159185428Y-93152685D01*
X159214457Y-93123657D01*
X159272514Y-93094628D01*
X159417657Y-93094628D01*
X159475714Y-93123657D01*
X159504742Y-93152685D01*
X159533771Y-93210742D01*
X159533771Y-93355885D01*
X159504742Y-93413942D01*
X159475714Y-93442971D01*
X158924171Y-92717257D02*
X158924171Y-92659200D01*
X158953200Y-92601142D01*
X158982228Y-92572114D01*
X159040285Y-92543085D01*
X159156400Y-92514057D01*
X159301542Y-92514057D01*
X159417657Y-92543085D01*
X159475714Y-92572114D01*
X159504742Y-92601142D01*
X159533771Y-92659200D01*
X159533771Y-92717257D01*
X159504742Y-92775314D01*
X159475714Y-92804342D01*
X159417657Y-92833371D01*
X159301542Y-92862400D01*
X159156400Y-92862400D01*
X159040285Y-92833371D01*
X158982228Y-92804342D01*
X158953200Y-92775314D01*
X158924171Y-92717257D01*
X159533771Y-91904457D02*
X159243485Y-92107657D01*
X159533771Y-92252800D02*
X158924171Y-92252800D01*
X158924171Y-92020571D01*
X158953200Y-91962514D01*
X158982228Y-91933485D01*
X159040285Y-91904457D01*
X159127371Y-91904457D01*
X159185428Y-91933485D01*
X159214457Y-91962514D01*
X159243485Y-92020571D01*
X159243485Y-92252800D01*
X164954857Y-83587771D02*
X164606514Y-83587771D01*
X164780685Y-83587771D02*
X164780685Y-82978171D01*
X164722628Y-83065257D01*
X164664571Y-83123314D01*
X164606514Y-83152342D01*
X165332228Y-82978171D02*
X165390285Y-82978171D01*
X165448342Y-83007200D01*
X165477371Y-83036228D01*
X165506400Y-83094285D01*
X165535428Y-83210400D01*
X165535428Y-83355542D01*
X165506400Y-83471657D01*
X165477371Y-83529714D01*
X165448342Y-83558742D01*
X165390285Y-83587771D01*
X165332228Y-83587771D01*
X165274171Y-83558742D01*
X165245142Y-83529714D01*
X165216114Y-83471657D01*
X165187085Y-83355542D01*
X165187085Y-83210400D01*
X165216114Y-83094285D01*
X165245142Y-83036228D01*
X165274171Y-83007200D01*
X165332228Y-82978171D01*
X166057942Y-83181371D02*
X166057942Y-83587771D01*
X165796685Y-83181371D02*
X165796685Y-83500685D01*
X165825714Y-83558742D01*
X165883771Y-83587771D01*
X165970857Y-83587771D01*
X166028914Y-83558742D01*
X166057942Y-83529714D01*
X166551428Y-83268457D02*
X166348228Y-83268457D01*
X166348228Y-83587771D02*
X166348228Y-82978171D01*
X166638514Y-82978171D01*
X151594457Y-94720228D02*
X151623485Y-94691200D01*
X151681542Y-94662171D01*
X151826685Y-94662171D01*
X151884742Y-94691200D01*
X151913771Y-94720228D01*
X151942800Y-94778285D01*
X151942800Y-94836342D01*
X151913771Y-94923428D01*
X151565428Y-95271771D01*
X151942800Y-95271771D01*
X152146000Y-94662171D02*
X152552400Y-94662171D01*
X152291142Y-95271771D01*
X152900742Y-94662171D02*
X152958800Y-94662171D01*
X153016857Y-94691200D01*
X153045885Y-94720228D01*
X153074914Y-94778285D01*
X153103942Y-94894400D01*
X153103942Y-95039542D01*
X153074914Y-95155657D01*
X153045885Y-95213714D01*
X153016857Y-95242742D01*
X152958800Y-95271771D01*
X152900742Y-95271771D01*
X152842685Y-95242742D01*
X152813657Y-95213714D01*
X152784628Y-95155657D01*
X152755600Y-95039542D01*
X152755600Y-94894400D01*
X152784628Y-94778285D01*
X152813657Y-94720228D01*
X152842685Y-94691200D01*
X152900742Y-94662171D01*
X153713542Y-95271771D02*
X153510342Y-94981485D01*
X153365200Y-95271771D02*
X153365200Y-94662171D01*
X153597428Y-94662171D01*
X153655485Y-94691200D01*
X153684514Y-94720228D01*
X153713542Y-94778285D01*
X153713542Y-94865371D01*
X153684514Y-94923428D01*
X153655485Y-94952457D01*
X153597428Y-94981485D01*
X153365200Y-94981485D01*
X144511485Y-94662171D02*
X144888857Y-94662171D01*
X144685657Y-94894400D01*
X144772742Y-94894400D01*
X144830800Y-94923428D01*
X144859828Y-94952457D01*
X144888857Y-95010514D01*
X144888857Y-95155657D01*
X144859828Y-95213714D01*
X144830800Y-95242742D01*
X144772742Y-95271771D01*
X144598571Y-95271771D01*
X144540514Y-95242742D01*
X144511485Y-95213714D01*
X145092057Y-94662171D02*
X145469428Y-94662171D01*
X145266228Y-94894400D01*
X145353314Y-94894400D01*
X145411371Y-94923428D01*
X145440400Y-94952457D01*
X145469428Y-95010514D01*
X145469428Y-95155657D01*
X145440400Y-95213714D01*
X145411371Y-95242742D01*
X145353314Y-95271771D01*
X145179142Y-95271771D01*
X145121085Y-95242742D01*
X145092057Y-95213714D01*
X145730685Y-94865371D02*
X145730685Y-95271771D01*
X145730685Y-94923428D02*
X145759714Y-94894400D01*
X145817771Y-94865371D01*
X145904857Y-94865371D01*
X145962914Y-94894400D01*
X145991942Y-94952457D01*
X145991942Y-95271771D01*
X146485428Y-94952457D02*
X146282228Y-94952457D01*
X146282228Y-95271771D02*
X146282228Y-94662171D01*
X146572514Y-94662171D01*
D11*
X146596704Y-88708895D02*
X146790228Y-89521695D01*
X146945047Y-88941123D01*
X147099866Y-89521695D01*
X147293390Y-88708895D01*
X148144895Y-89599104D02*
X148067485Y-89560400D01*
X147990076Y-89482990D01*
X147873961Y-89366876D01*
X147796552Y-89328171D01*
X147719142Y-89328171D01*
X147757847Y-89521695D02*
X147680438Y-89482990D01*
X147603028Y-89405580D01*
X147564323Y-89250761D01*
X147564323Y-88979828D01*
X147603028Y-88825009D01*
X147680438Y-88747600D01*
X147757847Y-88708895D01*
X147912666Y-88708895D01*
X147990076Y-88747600D01*
X148067485Y-88825009D01*
X148106190Y-88979828D01*
X148106190Y-89250761D01*
X148067485Y-89405580D01*
X147990076Y-89482990D01*
X147912666Y-89521695D01*
X147757847Y-89521695D01*
X148454533Y-89521695D02*
X148454533Y-88708895D01*
X148764171Y-88708895D01*
X148841580Y-88747600D01*
X148880285Y-88786304D01*
X148918990Y-88863714D01*
X148918990Y-88979828D01*
X148880285Y-89057238D01*
X148841580Y-89095942D01*
X148764171Y-89134647D01*
X148454533Y-89134647D01*
X149267333Y-89212057D02*
X149886609Y-89212057D01*
X150273657Y-89521695D02*
X150273657Y-88708895D01*
X150583295Y-88708895D01*
X150660704Y-88747600D01*
X150699409Y-88786304D01*
X150738114Y-88863714D01*
X150738114Y-88979828D01*
X150699409Y-89057238D01*
X150660704Y-89095942D01*
X150583295Y-89134647D01*
X150273657Y-89134647D01*
X151318685Y-88708895D02*
X151318685Y-89289466D01*
X151279980Y-89405580D01*
X151202571Y-89482990D01*
X151086457Y-89521695D01*
X151009047Y-89521695D01*
X151628323Y-88708895D02*
X152131485Y-88708895D01*
X151860552Y-89018533D01*
X151976666Y-89018533D01*
X152054076Y-89057238D01*
X152092780Y-89095942D01*
X152131485Y-89173352D01*
X152131485Y-89366876D01*
X152092780Y-89444285D01*
X152054076Y-89482990D01*
X151976666Y-89521695D01*
X151744438Y-89521695D01*
X151667028Y-89482990D01*
X151628323Y-89444285D01*
X152634647Y-88708895D02*
X152712057Y-88708895D01*
X152789466Y-88747600D01*
X152828171Y-88786304D01*
X152866876Y-88863714D01*
X152905580Y-89018533D01*
X152905580Y-89212057D01*
X152866876Y-89366876D01*
X152828171Y-89444285D01*
X152789466Y-89482990D01*
X152712057Y-89521695D01*
X152634647Y-89521695D01*
X152557238Y-89482990D01*
X152518533Y-89444285D01*
X152479828Y-89366876D01*
X152441123Y-89212057D01*
X152441123Y-89018533D01*
X152479828Y-88863714D01*
X152518533Y-88786304D01*
X152557238Y-88747600D01*
X152634647Y-88708895D01*
X153215219Y-88786304D02*
X153253923Y-88747600D01*
X153331333Y-88708895D01*
X153524857Y-88708895D01*
X153602266Y-88747600D01*
X153640971Y-88786304D01*
X153679676Y-88863714D01*
X153679676Y-88941123D01*
X153640971Y-89057238D01*
X153176514Y-89521695D01*
X153679676Y-89521695D01*
X154028019Y-89521695D02*
X154028019Y-88708895D01*
X154298952Y-89289466D01*
X154569885Y-88708895D01*
X154569885Y-89521695D01*
X163958209Y-89521695D02*
X163958209Y-88708895D01*
X164267847Y-88708895D01*
X164345257Y-88747600D01*
X164383961Y-88786304D01*
X164422666Y-88863714D01*
X164422666Y-88979828D01*
X164383961Y-89057238D01*
X164345257Y-89095942D01*
X164267847Y-89134647D01*
X163958209Y-89134647D01*
X164693600Y-88708895D02*
X164887123Y-89521695D01*
X165041942Y-88941123D01*
X165196761Y-89521695D01*
X165390285Y-88708895D01*
X165699923Y-89521695D02*
X165699923Y-88708895D01*
X165970857Y-89289466D01*
X166241790Y-88708895D01*
X166241790Y-89521695D01*
X164480723Y-95859600D02*
X164403314Y-95820895D01*
X164287200Y-95820895D01*
X164171085Y-95859600D01*
X164093676Y-95937009D01*
X164054971Y-96014419D01*
X164016266Y-96169238D01*
X164016266Y-96285352D01*
X164054971Y-96440171D01*
X164093676Y-96517580D01*
X164171085Y-96594990D01*
X164287200Y-96633695D01*
X164364609Y-96633695D01*
X164480723Y-96594990D01*
X164519428Y-96556285D01*
X164519428Y-96285352D01*
X164364609Y-96285352D01*
X164867771Y-96633695D02*
X164867771Y-95820895D01*
X165332228Y-96633695D01*
X165332228Y-95820895D01*
X165719276Y-96633695D02*
X165719276Y-95820895D01*
X165912800Y-95820895D01*
X166028914Y-95859600D01*
X166106323Y-95937009D01*
X166145028Y-96014419D01*
X166183733Y-96169238D01*
X166183733Y-96285352D01*
X166145028Y-96440171D01*
X166106323Y-96517580D01*
X166028914Y-96594990D01*
X165912800Y-96633695D01*
X165719276Y-96633695D01*
D12*
X153261225Y-93701000D02*
X141361225Y-93701000D01*
X157361225Y-93701000D02*
X156861225Y-93701000D01*
X157361225Y-90101000D02*
X157361225Y-93701000D01*
X157361225Y-82901000D02*
X157361225Y-86401000D01*
X141361225Y-82901000D02*
X157361225Y-82901000D01*
X141361225Y-93701000D02*
X141361225Y-82901000D01*
X159920000Y-96742000D02*
X160250000Y-96742000D01*
X159920000Y-90202000D02*
X159920000Y-96742000D01*
X160250000Y-90202000D02*
X159920000Y-90202000D01*
X162660000Y-96742000D02*
X162330000Y-96742000D01*
X162660000Y-90202000D02*
X162660000Y-96742000D01*
X162330000Y-90202000D02*
X162660000Y-90202000D01*
X157702000Y-98398000D02*
X157702000Y-98068000D01*
X151162000Y-98398000D02*
X157702000Y-98398000D01*
X151162000Y-98068000D02*
X151162000Y-98398000D01*
X157702000Y-95658000D02*
X157702000Y-95988000D01*
X151162000Y-95658000D02*
X157702000Y-95658000D01*
X151162000Y-95988000D02*
X151162000Y-95658000D01*
X163770000Y-90110000D02*
X165100000Y-90110000D01*
X163770000Y-91440000D02*
X163770000Y-90110000D01*
X163770000Y-92710000D02*
X166430000Y-92710000D01*
X166430000Y-92710000D02*
X166430000Y-95310000D01*
X163770000Y-92710000D02*
X163770000Y-95310000D01*
X163770000Y-95310000D02*
X166430000Y-95310000D01*
X142962000Y-95973000D02*
X142962000Y-95658000D01*
X142962000Y-98398000D02*
X142962000Y-98083000D01*
X148202000Y-95973000D02*
X148202000Y-95658000D01*
X148202000Y-98398000D02*
X148202000Y-98083000D01*
X148202000Y-95658000D02*
X142962000Y-95658000D01*
X148202000Y-98398000D02*
X142962000Y-98398000D01*
X164372775Y-87069000D02*
X164372775Y-86569000D01*
X164622775Y-86819000D02*
X164122775Y-86819000D01*
X159217000Y-85628000D02*
X159217000Y-85060000D01*
X159257000Y-85862000D02*
X159257000Y-84826000D01*
X159297000Y-86021000D02*
X159297000Y-84667000D01*
X159337000Y-86149000D02*
X159337000Y-84539000D01*
X159377000Y-86259000D02*
X159377000Y-84429000D01*
X159417000Y-86355000D02*
X159417000Y-84333000D01*
X159457000Y-86442000D02*
X159457000Y-84246000D01*
X159497000Y-86522000D02*
X159497000Y-84166000D01*
X159537000Y-84304000D02*
X159537000Y-84093000D01*
X159537000Y-86595000D02*
X159537000Y-86384000D01*
X159577000Y-84304000D02*
X159577000Y-84025000D01*
X159577000Y-86663000D02*
X159577000Y-86384000D01*
X159617000Y-84304000D02*
X159617000Y-83961000D01*
X159617000Y-86727000D02*
X159617000Y-86384000D01*
X159657000Y-84304000D02*
X159657000Y-83901000D01*
X159657000Y-86787000D02*
X159657000Y-86384000D01*
X159697000Y-84304000D02*
X159697000Y-83844000D01*
X159697000Y-86844000D02*
X159697000Y-86384000D01*
X159737000Y-84304000D02*
X159737000Y-83790000D01*
X159737000Y-86898000D02*
X159737000Y-86384000D01*
X159777000Y-84304000D02*
X159777000Y-83739000D01*
X159777000Y-86949000D02*
X159777000Y-86384000D01*
X159817000Y-84304000D02*
X159817000Y-83691000D01*
X159817000Y-86997000D02*
X159817000Y-86384000D01*
X159857000Y-84304000D02*
X159857000Y-83645000D01*
X159857000Y-87043000D02*
X159857000Y-86384000D01*
X159897000Y-84304000D02*
X159897000Y-83601000D01*
X159897000Y-87087000D02*
X159897000Y-86384000D01*
X159937000Y-84304000D02*
X159937000Y-83559000D01*
X159937000Y-87129000D02*
X159937000Y-86384000D01*
X159977000Y-84304000D02*
X159977000Y-83518000D01*
X159977000Y-87170000D02*
X159977000Y-86384000D01*
X160017000Y-84304000D02*
X160017000Y-83480000D01*
X160017000Y-87208000D02*
X160017000Y-86384000D01*
X160057000Y-84304000D02*
X160057000Y-83443000D01*
X160057000Y-87245000D02*
X160057000Y-86384000D01*
X160097000Y-84304000D02*
X160097000Y-83407000D01*
X160097000Y-87281000D02*
X160097000Y-86384000D01*
X160137000Y-84304000D02*
X160137000Y-83373000D01*
X160137000Y-87315000D02*
X160137000Y-86384000D01*
X160177000Y-84304000D02*
X160177000Y-83340000D01*
X160177000Y-87348000D02*
X160177000Y-86384000D01*
X160217000Y-84304000D02*
X160217000Y-83309000D01*
X160217000Y-87379000D02*
X160217000Y-86384000D01*
X160257000Y-84304000D02*
X160257000Y-83279000D01*
X160257000Y-87409000D02*
X160257000Y-86384000D01*
X160297000Y-84304000D02*
X160297000Y-83249000D01*
X160297000Y-87439000D02*
X160297000Y-86384000D01*
X160337000Y-84304000D02*
X160337000Y-83222000D01*
X160337000Y-87466000D02*
X160337000Y-86384000D01*
X160377000Y-84304000D02*
X160377000Y-83195000D01*
X160377000Y-87493000D02*
X160377000Y-86384000D01*
X160417000Y-84304000D02*
X160417000Y-83169000D01*
X160417000Y-87519000D02*
X160417000Y-86384000D01*
X160457000Y-84304000D02*
X160457000Y-83144000D01*
X160457000Y-87544000D02*
X160457000Y-86384000D01*
X160497000Y-84304000D02*
X160497000Y-83120000D01*
X160497000Y-87568000D02*
X160497000Y-86384000D01*
X160537000Y-84304000D02*
X160537000Y-83097000D01*
X160537000Y-87591000D02*
X160537000Y-86384000D01*
X160577000Y-84304000D02*
X160577000Y-83076000D01*
X160577000Y-87612000D02*
X160577000Y-86384000D01*
X160617000Y-84304000D02*
X160617000Y-83054000D01*
X160617000Y-87634000D02*
X160617000Y-86384000D01*
X160657000Y-84304000D02*
X160657000Y-83034000D01*
X160657000Y-87654000D02*
X160657000Y-86384000D01*
X160697000Y-84304000D02*
X160697000Y-83015000D01*
X160697000Y-87673000D02*
X160697000Y-86384000D01*
X160737000Y-84304000D02*
X160737000Y-82996000D01*
X160737000Y-87692000D02*
X160737000Y-86384000D01*
X160777000Y-84304000D02*
X160777000Y-82979000D01*
X160777000Y-87709000D02*
X160777000Y-86384000D01*
X160817000Y-84304000D02*
X160817000Y-82962000D01*
X160817000Y-87726000D02*
X160817000Y-86384000D01*
X160857000Y-84304000D02*
X160857000Y-82946000D01*
X160857000Y-87742000D02*
X160857000Y-86384000D01*
X160897000Y-84304000D02*
X160897000Y-82930000D01*
X160897000Y-87758000D02*
X160897000Y-86384000D01*
X160937000Y-84304000D02*
X160937000Y-82916000D01*
X160937000Y-87772000D02*
X160937000Y-86384000D01*
X160977000Y-84304000D02*
X160977000Y-82902000D01*
X160977000Y-87786000D02*
X160977000Y-86384000D01*
X161017000Y-84304000D02*
X161017000Y-82889000D01*
X161017000Y-87799000D02*
X161017000Y-86384000D01*
X161057000Y-84304000D02*
X161057000Y-82876000D01*
X161057000Y-87812000D02*
X161057000Y-86384000D01*
X161097000Y-84304000D02*
X161097000Y-82864000D01*
X161097000Y-87824000D02*
X161097000Y-86384000D01*
X161138000Y-84304000D02*
X161138000Y-82853000D01*
X161138000Y-87835000D02*
X161138000Y-86384000D01*
X161178000Y-84304000D02*
X161178000Y-82843000D01*
X161178000Y-87845000D02*
X161178000Y-86384000D01*
X161218000Y-84304000D02*
X161218000Y-82833000D01*
X161218000Y-87855000D02*
X161218000Y-86384000D01*
X161258000Y-84304000D02*
X161258000Y-82824000D01*
X161258000Y-87864000D02*
X161258000Y-86384000D01*
X161298000Y-84304000D02*
X161298000Y-82816000D01*
X161298000Y-87872000D02*
X161298000Y-86384000D01*
X161338000Y-84304000D02*
X161338000Y-82808000D01*
X161338000Y-87880000D02*
X161338000Y-86384000D01*
X161378000Y-84304000D02*
X161378000Y-82801000D01*
X161378000Y-87887000D02*
X161378000Y-86384000D01*
X161418000Y-84304000D02*
X161418000Y-82794000D01*
X161418000Y-87894000D02*
X161418000Y-86384000D01*
X161458000Y-84304000D02*
X161458000Y-82788000D01*
X161458000Y-87900000D02*
X161458000Y-86384000D01*
X161498000Y-84304000D02*
X161498000Y-82783000D01*
X161498000Y-87905000D02*
X161498000Y-86384000D01*
X161538000Y-84304000D02*
X161538000Y-82779000D01*
X161538000Y-87909000D02*
X161538000Y-86384000D01*
X161578000Y-84304000D02*
X161578000Y-82775000D01*
X161578000Y-87913000D02*
X161578000Y-86384000D01*
X161618000Y-87917000D02*
X161618000Y-82771000D01*
X161658000Y-87920000D02*
X161658000Y-82768000D01*
X161698000Y-87922000D02*
X161698000Y-82766000D01*
X161738000Y-87923000D02*
X161738000Y-82765000D01*
X161778000Y-87924000D02*
X161778000Y-82764000D01*
X161818000Y-87924000D02*
X161818000Y-82764000D01*
X164438000Y-85344000D02*
G75*
G03X164438000Y-85344000I-2620000J0D01*
G01*
D13*
X149526666Y-86574380D02*
X149526666Y-87288666D01*
X149479047Y-87431523D01*
X149383809Y-87526761D01*
X149240952Y-87574380D01*
X149145714Y-87574380D01*
X150526666Y-87574380D02*
X149955238Y-87574380D01*
X150240952Y-87574380D02*
X150240952Y-86574380D01*
X150145714Y-86717238D01*
X150050476Y-86812476D01*
X149955238Y-86860095D01*
X161742380Y-93638666D02*
X161266190Y-93972000D01*
X161742380Y-94210095D02*
X160742380Y-94210095D01*
X160742380Y-93829142D01*
X160790000Y-93733904D01*
X160837619Y-93686285D01*
X160932857Y-93638666D01*
X161075714Y-93638666D01*
X161170952Y-93686285D01*
X161218571Y-93733904D01*
X161266190Y-93829142D01*
X161266190Y-94210095D01*
X160837619Y-93257714D02*
X160790000Y-93210095D01*
X160742380Y-93114857D01*
X160742380Y-92876761D01*
X160790000Y-92781523D01*
X160837619Y-92733904D01*
X160932857Y-92686285D01*
X161028095Y-92686285D01*
X161170952Y-92733904D01*
X161742380Y-93305333D01*
X161742380Y-92686285D01*
X154265333Y-97480380D02*
X153932000Y-97004190D01*
X153693904Y-97480380D02*
X153693904Y-96480380D01*
X154074857Y-96480380D01*
X154170095Y-96528000D01*
X154217714Y-96575619D01*
X154265333Y-96670857D01*
X154265333Y-96813714D01*
X154217714Y-96908952D01*
X154170095Y-96956571D01*
X154074857Y-97004190D01*
X153693904Y-97004190D01*
X155217714Y-97480380D02*
X154646285Y-97480380D01*
X154932000Y-97480380D02*
X154932000Y-96480380D01*
X154836761Y-96623238D01*
X154741523Y-96718476D01*
X154646285Y-96766095D01*
X164766666Y-97242380D02*
X164766666Y-97956666D01*
X164719047Y-98099523D01*
X164623809Y-98194761D01*
X164480952Y-98242380D01*
X164385714Y-98242380D01*
X165195238Y-97337619D02*
X165242857Y-97290000D01*
X165338095Y-97242380D01*
X165576190Y-97242380D01*
X165671428Y-97290000D01*
X165719047Y-97337619D01*
X165766666Y-97432857D01*
X165766666Y-97528095D01*
X165719047Y-97670952D01*
X165147619Y-98242380D01*
X165766666Y-98242380D01*
X145415333Y-97385142D02*
X145367714Y-97432761D01*
X145224857Y-97480380D01*
X145129619Y-97480380D01*
X144986761Y-97432761D01*
X144891523Y-97337523D01*
X144843904Y-97242285D01*
X144796285Y-97051809D01*
X144796285Y-96908952D01*
X144843904Y-96718476D01*
X144891523Y-96623238D01*
X144986761Y-96528000D01*
X145129619Y-96480380D01*
X145224857Y-96480380D01*
X145367714Y-96528000D01*
X145415333Y-96575619D01*
X145796285Y-96575619D02*
X145843904Y-96528000D01*
X145939142Y-96480380D01*
X146177238Y-96480380D01*
X146272476Y-96528000D01*
X146320095Y-96575619D01*
X146367714Y-96670857D01*
X146367714Y-96766095D01*
X146320095Y-96908952D01*
X145748666Y-97480380D01*
X146367714Y-97480380D01*
X165711142Y-85256666D02*
X165758761Y-85304285D01*
X165806380Y-85447142D01*
X165806380Y-85542380D01*
X165758761Y-85685238D01*
X165663523Y-85780476D01*
X165568285Y-85828095D01*
X165377809Y-85875714D01*
X165234952Y-85875714D01*
X165044476Y-85828095D01*
X164949238Y-85780476D01*
X164854000Y-85685238D01*
X164806380Y-85542380D01*
X164806380Y-85447142D01*
X164854000Y-85304285D01*
X164901619Y-85256666D01*
X165806380Y-84304285D02*
X165806380Y-84875714D01*
X165806380Y-84590000D02*
X164806380Y-84590000D01*
X164949238Y-84685238D01*
X165044476Y-84780476D01*
X165092095Y-84875714D01*
%LPC*%
D14*
X144011225Y-88301000D03*
D15*
X155011225Y-93501000D03*
D14*
X157211225Y-88301000D03*
D16*
X161290000Y-97282000D03*
D17*
X161290000Y-89662000D03*
D16*
X158242000Y-97028000D03*
D17*
X150622000Y-97028000D03*
D18*
X165100000Y-93980000D03*
D19*
X165100000Y-91440000D03*
D17*
X143082000Y-97028000D03*
X148082000Y-97028000D03*
X160568000Y-85344000D03*
D20*
X163068000Y-85344000D03*
M02*
