G04 #@! TF.GenerationSoftware,KiCad,Pcbnew,(5.1.2-1)-1*
G04 #@! TF.CreationDate,2020-04-08T11:28:40-04:00*
G04 #@! TF.ProjectId,raspberry_pi_zero_mono_audio_out,72617370-6265-4727-9279-5f70695f7a65,rev?*
G04 #@! TF.SameCoordinates,Original*
G04 #@! TF.FileFunction,Soldermask,Top*
G04 #@! TF.FilePolarity,Negative*
%FSLAX46Y46*%
G04 Gerber Fmt 4.6, Leading zero omitted, Abs format (unit mm)*
G04 Created by KiCad (PCBNEW (5.1.2-1)-1) date 2020-04-08 11:28:40*
%MOMM*%
%LPD*%
G04 APERTURE LIST*
%ADD10C,0.100000*%
G04 APERTURE END LIST*
D10*
G36*
X161456823Y-96443313D02*
G01*
X161617242Y-96491976D01*
X161749906Y-96562886D01*
X161765078Y-96570996D01*
X161894659Y-96677341D01*
X162001004Y-96806922D01*
X162001005Y-96806924D01*
X162080024Y-96954758D01*
X162128687Y-97115177D01*
X162145117Y-97282000D01*
X162128687Y-97448823D01*
X162080024Y-97609242D01*
X162067507Y-97632659D01*
X162001004Y-97757078D01*
X161894659Y-97886659D01*
X161765078Y-97993004D01*
X161765076Y-97993005D01*
X161617242Y-98072024D01*
X161456823Y-98120687D01*
X161331804Y-98133000D01*
X161248196Y-98133000D01*
X161123177Y-98120687D01*
X160962758Y-98072024D01*
X160814924Y-97993005D01*
X160814922Y-97993004D01*
X160685341Y-97886659D01*
X160578996Y-97757078D01*
X160512493Y-97632659D01*
X160499976Y-97609242D01*
X160451313Y-97448823D01*
X160434883Y-97282000D01*
X160451313Y-97115177D01*
X160499976Y-96954758D01*
X160578995Y-96806924D01*
X160578996Y-96806922D01*
X160685341Y-96677341D01*
X160814922Y-96570996D01*
X160830094Y-96562886D01*
X160962758Y-96491976D01*
X161123177Y-96443313D01*
X161248196Y-96431000D01*
X161331804Y-96431000D01*
X161456823Y-96443313D01*
X161456823Y-96443313D01*
G37*
G36*
X158408823Y-96189313D02*
G01*
X158569242Y-96237976D01*
X158636361Y-96273852D01*
X158717078Y-96316996D01*
X158846659Y-96423341D01*
X158953004Y-96552922D01*
X158953005Y-96552924D01*
X159032024Y-96700758D01*
X159080687Y-96861177D01*
X159097117Y-97028000D01*
X159080687Y-97194823D01*
X159032024Y-97355242D01*
X158991477Y-97431100D01*
X158953004Y-97503078D01*
X158846659Y-97632659D01*
X158717078Y-97739004D01*
X158717076Y-97739005D01*
X158569242Y-97818024D01*
X158408823Y-97866687D01*
X158283804Y-97879000D01*
X158200196Y-97879000D01*
X158075177Y-97866687D01*
X157914758Y-97818024D01*
X157766924Y-97739005D01*
X157766922Y-97739004D01*
X157637341Y-97632659D01*
X157530996Y-97503078D01*
X157492523Y-97431100D01*
X157451976Y-97355242D01*
X157403313Y-97194823D01*
X157386883Y-97028000D01*
X157403313Y-96861177D01*
X157451976Y-96700758D01*
X157530995Y-96552924D01*
X157530996Y-96552922D01*
X157637341Y-96423341D01*
X157766922Y-96316996D01*
X157847639Y-96273852D01*
X157914758Y-96237976D01*
X158075177Y-96189313D01*
X158200196Y-96177000D01*
X158283804Y-96177000D01*
X158408823Y-96189313D01*
X158408823Y-96189313D01*
G37*
G36*
X150870228Y-96209703D02*
G01*
X151025100Y-96273853D01*
X151164481Y-96366985D01*
X151283015Y-96485519D01*
X151376147Y-96624900D01*
X151440297Y-96779772D01*
X151473000Y-96944184D01*
X151473000Y-97111816D01*
X151440297Y-97276228D01*
X151376147Y-97431100D01*
X151283015Y-97570481D01*
X151164481Y-97689015D01*
X151025100Y-97782147D01*
X150870228Y-97846297D01*
X150705816Y-97879000D01*
X150538184Y-97879000D01*
X150373772Y-97846297D01*
X150218900Y-97782147D01*
X150079519Y-97689015D01*
X149960985Y-97570481D01*
X149867853Y-97431100D01*
X149803703Y-97276228D01*
X149771000Y-97111816D01*
X149771000Y-96944184D01*
X149803703Y-96779772D01*
X149867853Y-96624900D01*
X149960985Y-96485519D01*
X150079519Y-96366985D01*
X150218900Y-96273853D01*
X150373772Y-96209703D01*
X150538184Y-96177000D01*
X150705816Y-96177000D01*
X150870228Y-96209703D01*
X150870228Y-96209703D01*
G37*
G36*
X148330228Y-96209703D02*
G01*
X148485100Y-96273853D01*
X148624481Y-96366985D01*
X148743015Y-96485519D01*
X148836147Y-96624900D01*
X148900297Y-96779772D01*
X148933000Y-96944184D01*
X148933000Y-97111816D01*
X148900297Y-97276228D01*
X148836147Y-97431100D01*
X148743015Y-97570481D01*
X148624481Y-97689015D01*
X148485100Y-97782147D01*
X148330228Y-97846297D01*
X148165816Y-97879000D01*
X147998184Y-97879000D01*
X147833772Y-97846297D01*
X147678900Y-97782147D01*
X147539519Y-97689015D01*
X147420985Y-97570481D01*
X147327853Y-97431100D01*
X147263703Y-97276228D01*
X147231000Y-97111816D01*
X147231000Y-96944184D01*
X147263703Y-96779772D01*
X147327853Y-96624900D01*
X147420985Y-96485519D01*
X147539519Y-96366985D01*
X147678900Y-96273853D01*
X147833772Y-96209703D01*
X147998184Y-96177000D01*
X148165816Y-96177000D01*
X148330228Y-96209703D01*
X148330228Y-96209703D01*
G37*
G36*
X143330228Y-96209703D02*
G01*
X143485100Y-96273853D01*
X143624481Y-96366985D01*
X143743015Y-96485519D01*
X143836147Y-96624900D01*
X143900297Y-96779772D01*
X143933000Y-96944184D01*
X143933000Y-97111816D01*
X143900297Y-97276228D01*
X143836147Y-97431100D01*
X143743015Y-97570481D01*
X143624481Y-97689015D01*
X143485100Y-97782147D01*
X143330228Y-97846297D01*
X143165816Y-97879000D01*
X142998184Y-97879000D01*
X142833772Y-97846297D01*
X142678900Y-97782147D01*
X142539519Y-97689015D01*
X142420985Y-97570481D01*
X142327853Y-97431100D01*
X142263703Y-97276228D01*
X142231000Y-97111816D01*
X142231000Y-96944184D01*
X142263703Y-96779772D01*
X142327853Y-96624900D01*
X142420985Y-96485519D01*
X142539519Y-96366985D01*
X142678900Y-96273853D01*
X142833772Y-96209703D01*
X142998184Y-96177000D01*
X143165816Y-96177000D01*
X143330228Y-96209703D01*
X143330228Y-96209703D01*
G37*
G36*
X165210443Y-93085519D02*
G01*
X165276627Y-93092037D01*
X165446466Y-93143557D01*
X165602991Y-93227222D01*
X165638729Y-93256552D01*
X165740186Y-93339814D01*
X165823448Y-93441271D01*
X165852778Y-93477009D01*
X165936443Y-93633534D01*
X165987963Y-93803373D01*
X166005359Y-93980000D01*
X165987963Y-94156627D01*
X165936443Y-94326466D01*
X165852778Y-94482991D01*
X165823448Y-94518729D01*
X165740186Y-94620186D01*
X165638729Y-94703448D01*
X165602991Y-94732778D01*
X165446466Y-94816443D01*
X165276627Y-94867963D01*
X165210443Y-94874481D01*
X165144260Y-94881000D01*
X165055740Y-94881000D01*
X164989557Y-94874481D01*
X164923373Y-94867963D01*
X164753534Y-94816443D01*
X164597009Y-94732778D01*
X164561271Y-94703448D01*
X164459814Y-94620186D01*
X164376552Y-94518729D01*
X164347222Y-94482991D01*
X164263557Y-94326466D01*
X164212037Y-94156627D01*
X164194641Y-93980000D01*
X164212037Y-93803373D01*
X164263557Y-93633534D01*
X164347222Y-93477009D01*
X164376552Y-93441271D01*
X164459814Y-93339814D01*
X164561271Y-93256552D01*
X164597009Y-93227222D01*
X164753534Y-93143557D01*
X164923373Y-93092037D01*
X164989557Y-93085519D01*
X165055740Y-93079000D01*
X165144260Y-93079000D01*
X165210443Y-93085519D01*
X165210443Y-93085519D01*
G37*
G36*
X155979972Y-92691921D02*
G01*
X156059601Y-92699764D01*
X156212852Y-92746252D01*
X156212855Y-92746253D01*
X156354088Y-92821744D01*
X156477884Y-92923341D01*
X156579481Y-93047137D01*
X156654972Y-93188370D01*
X156654973Y-93188373D01*
X156701461Y-93341624D01*
X156717158Y-93501000D01*
X156701461Y-93660376D01*
X156658083Y-93803375D01*
X156654972Y-93813630D01*
X156579481Y-93954863D01*
X156477884Y-94078659D01*
X156354088Y-94180256D01*
X156212855Y-94255747D01*
X156212852Y-94255748D01*
X156059601Y-94302236D01*
X155979972Y-94310079D01*
X155940159Y-94314000D01*
X154082291Y-94314000D01*
X154042478Y-94310079D01*
X153962849Y-94302236D01*
X153809598Y-94255748D01*
X153809595Y-94255747D01*
X153668362Y-94180256D01*
X153544566Y-94078659D01*
X153442969Y-93954863D01*
X153367478Y-93813630D01*
X153364367Y-93803375D01*
X153320989Y-93660376D01*
X153305292Y-93501000D01*
X153320989Y-93341624D01*
X153367477Y-93188373D01*
X153367478Y-93188370D01*
X153442969Y-93047137D01*
X153544566Y-92923341D01*
X153668362Y-92821744D01*
X153809595Y-92746253D01*
X153809598Y-92746252D01*
X153962849Y-92699764D01*
X154042478Y-92691921D01*
X154082291Y-92688000D01*
X155940159Y-92688000D01*
X155979972Y-92691921D01*
X155979972Y-92691921D01*
G37*
G36*
X166001000Y-92341000D02*
G01*
X164199000Y-92341000D01*
X164199000Y-90539000D01*
X166001000Y-90539000D01*
X166001000Y-92341000D01*
X166001000Y-92341000D01*
G37*
G36*
X161538228Y-88843703D02*
G01*
X161693100Y-88907853D01*
X161832481Y-89000985D01*
X161951015Y-89119519D01*
X162044147Y-89258900D01*
X162108297Y-89413772D01*
X162141000Y-89578184D01*
X162141000Y-89745816D01*
X162108297Y-89910228D01*
X162044147Y-90065100D01*
X161951015Y-90204481D01*
X161832481Y-90323015D01*
X161693100Y-90416147D01*
X161538228Y-90480297D01*
X161373816Y-90513000D01*
X161206184Y-90513000D01*
X161041772Y-90480297D01*
X160886900Y-90416147D01*
X160747519Y-90323015D01*
X160628985Y-90204481D01*
X160535853Y-90065100D01*
X160471703Y-89910228D01*
X160439000Y-89745816D01*
X160439000Y-89578184D01*
X160471703Y-89413772D01*
X160535853Y-89258900D01*
X160628985Y-89119519D01*
X160747519Y-89000985D01*
X160886900Y-88907853D01*
X161041772Y-88843703D01*
X161206184Y-88811000D01*
X161373816Y-88811000D01*
X161538228Y-88843703D01*
X161538228Y-88843703D01*
G37*
G36*
X144170600Y-86610764D02*
G01*
X144323851Y-86657252D01*
X144323854Y-86657253D01*
X144465088Y-86732744D01*
X144588884Y-86834341D01*
X144690481Y-86958137D01*
X144765972Y-87099370D01*
X144765972Y-87099371D01*
X144765973Y-87099373D01*
X144812461Y-87252624D01*
X144824225Y-87372067D01*
X144824225Y-89229933D01*
X144812461Y-89349376D01*
X144765973Y-89502627D01*
X144765972Y-89502630D01*
X144690481Y-89643863D01*
X144588884Y-89767659D01*
X144465088Y-89869256D01*
X144323855Y-89944747D01*
X144323852Y-89944748D01*
X144170601Y-89991236D01*
X144011225Y-90006933D01*
X143851850Y-89991236D01*
X143698599Y-89944748D01*
X143698596Y-89944747D01*
X143557363Y-89869256D01*
X143433567Y-89767659D01*
X143331970Y-89643863D01*
X143256479Y-89502630D01*
X143256478Y-89502627D01*
X143209990Y-89349376D01*
X143198226Y-89229933D01*
X143198225Y-87372068D01*
X143209989Y-87252625D01*
X143256477Y-87099374D01*
X143256478Y-87099371D01*
X143331969Y-86958137D01*
X143433566Y-86834341D01*
X143557362Y-86732744D01*
X143698595Y-86657253D01*
X143698598Y-86657252D01*
X143851849Y-86610764D01*
X144011225Y-86595067D01*
X144170600Y-86610764D01*
X144170600Y-86610764D01*
G37*
G36*
X157370600Y-86610764D02*
G01*
X157523851Y-86657252D01*
X157523854Y-86657253D01*
X157665088Y-86732744D01*
X157788884Y-86834341D01*
X157890481Y-86958137D01*
X157965972Y-87099370D01*
X157965972Y-87099371D01*
X157965973Y-87099373D01*
X158012461Y-87252624D01*
X158024225Y-87372067D01*
X158024225Y-89229933D01*
X158012461Y-89349376D01*
X157965973Y-89502627D01*
X157965972Y-89502630D01*
X157890481Y-89643863D01*
X157788884Y-89767659D01*
X157665088Y-89869256D01*
X157523855Y-89944747D01*
X157523852Y-89944748D01*
X157370601Y-89991236D01*
X157211225Y-90006933D01*
X157051850Y-89991236D01*
X156898599Y-89944748D01*
X156898596Y-89944747D01*
X156757363Y-89869256D01*
X156633567Y-89767659D01*
X156531970Y-89643863D01*
X156456479Y-89502630D01*
X156456478Y-89502627D01*
X156409990Y-89349376D01*
X156398226Y-89229933D01*
X156398225Y-87372068D01*
X156409989Y-87252625D01*
X156456477Y-87099374D01*
X156456478Y-87099371D01*
X156531969Y-86958137D01*
X156633566Y-86834341D01*
X156757362Y-86732744D01*
X156898595Y-86657253D01*
X156898598Y-86657252D01*
X157051849Y-86610764D01*
X157211225Y-86595067D01*
X157370600Y-86610764D01*
X157370600Y-86610764D01*
G37*
G36*
X163919000Y-86195000D02*
G01*
X162217000Y-86195000D01*
X162217000Y-84493000D01*
X163919000Y-84493000D01*
X163919000Y-86195000D01*
X163919000Y-86195000D01*
G37*
G36*
X160816228Y-84525703D02*
G01*
X160971100Y-84589853D01*
X161110481Y-84682985D01*
X161229015Y-84801519D01*
X161322147Y-84940900D01*
X161386297Y-85095772D01*
X161419000Y-85260184D01*
X161419000Y-85427816D01*
X161386297Y-85592228D01*
X161322147Y-85747100D01*
X161229015Y-85886481D01*
X161110481Y-86005015D01*
X160971100Y-86098147D01*
X160816228Y-86162297D01*
X160651816Y-86195000D01*
X160484184Y-86195000D01*
X160319772Y-86162297D01*
X160164900Y-86098147D01*
X160025519Y-86005015D01*
X159906985Y-85886481D01*
X159813853Y-85747100D01*
X159749703Y-85592228D01*
X159717000Y-85427816D01*
X159717000Y-85260184D01*
X159749703Y-85095772D01*
X159813853Y-84940900D01*
X159906985Y-84801519D01*
X160025519Y-84682985D01*
X160164900Y-84589853D01*
X160319772Y-84525703D01*
X160484184Y-84493000D01*
X160651816Y-84493000D01*
X160816228Y-84525703D01*
X160816228Y-84525703D01*
G37*
M02*
