G04 #@! TF.GenerationSoftware,KiCad,Pcbnew,(5.1.2-1)-1*
G04 #@! TF.CreationDate,2020-04-08T11:28:40-04:00*
G04 #@! TF.ProjectId,raspberry_pi_zero_mono_audio_out,72617370-6265-4727-9279-5f70695f7a65,rev?*
G04 #@! TF.SameCoordinates,Original*
G04 #@! TF.FileFunction,Legend,Bot*
G04 #@! TF.FilePolarity,Positive*
%FSLAX46Y46*%
G04 Gerber Fmt 4.6, Leading zero omitted, Abs format (unit mm)*
G04 Created by KiCad (PCBNEW (5.1.2-1)-1) date 2020-04-08 11:28:40*
%MOMM*%
%LPD*%
G04 APERTURE LIST*
%ADD10C,0.150000*%
%ADD11O,1.626000X3.404000*%
%ADD12O,3.404000X1.626000*%
%ADD13O,1.702000X1.702000*%
%ADD14C,1.702000*%
%ADD15O,1.802000X1.802000*%
%ADD16R,1.802000X1.802000*%
%ADD17R,1.702000X1.702000*%
G04 APERTURE END LIST*
D10*
X153098190Y-86115380D02*
X153431523Y-85639190D01*
X153669619Y-86115380D02*
X153669619Y-85115380D01*
X153288666Y-85115380D01*
X153193428Y-85163000D01*
X153145809Y-85210619D01*
X153098190Y-85305857D01*
X153098190Y-85448714D01*
X153145809Y-85543952D01*
X153193428Y-85591571D01*
X153288666Y-85639190D01*
X153669619Y-85639190D01*
X152669619Y-86115380D02*
X152669619Y-85115380D01*
X152288666Y-85115380D01*
X152193428Y-85163000D01*
X152145809Y-85210619D01*
X152098190Y-85305857D01*
X152098190Y-85448714D01*
X152145809Y-85543952D01*
X152193428Y-85591571D01*
X152288666Y-85639190D01*
X152669619Y-85639190D01*
X151669619Y-86115380D02*
X151669619Y-85448714D01*
X151669619Y-85115380D02*
X151717238Y-85163000D01*
X151669619Y-85210619D01*
X151622000Y-85163000D01*
X151669619Y-85115380D01*
X151669619Y-85210619D01*
X150526761Y-85115380D02*
X149860095Y-85115380D01*
X150526761Y-86115380D01*
X149860095Y-86115380D01*
X149098190Y-86067761D02*
X149193428Y-86115380D01*
X149383904Y-86115380D01*
X149479142Y-86067761D01*
X149526761Y-85972523D01*
X149526761Y-85591571D01*
X149479142Y-85496333D01*
X149383904Y-85448714D01*
X149193428Y-85448714D01*
X149098190Y-85496333D01*
X149050571Y-85591571D01*
X149050571Y-85686809D01*
X149526761Y-85782047D01*
X148622000Y-86115380D02*
X148622000Y-85448714D01*
X148622000Y-85639190D02*
X148574380Y-85543952D01*
X148526761Y-85496333D01*
X148431523Y-85448714D01*
X148336285Y-85448714D01*
X147860095Y-86115380D02*
X147955333Y-86067761D01*
X148002952Y-86020142D01*
X148050571Y-85924904D01*
X148050571Y-85639190D01*
X148002952Y-85543952D01*
X147955333Y-85496333D01*
X147860095Y-85448714D01*
X147717238Y-85448714D01*
X147622000Y-85496333D01*
X147574380Y-85543952D01*
X147526761Y-85639190D01*
X147526761Y-85924904D01*
X147574380Y-86020142D01*
X147622000Y-86067761D01*
X147717238Y-86115380D01*
X147860095Y-86115380D01*
X154717238Y-87765380D02*
X154717238Y-86765380D01*
X154383904Y-87479666D01*
X154050571Y-86765380D01*
X154050571Y-87765380D01*
X153431523Y-87765380D02*
X153526761Y-87717761D01*
X153574380Y-87670142D01*
X153622000Y-87574904D01*
X153622000Y-87289190D01*
X153574380Y-87193952D01*
X153526761Y-87146333D01*
X153431523Y-87098714D01*
X153288666Y-87098714D01*
X153193428Y-87146333D01*
X153145809Y-87193952D01*
X153098190Y-87289190D01*
X153098190Y-87574904D01*
X153145809Y-87670142D01*
X153193428Y-87717761D01*
X153288666Y-87765380D01*
X153431523Y-87765380D01*
X152669619Y-87098714D02*
X152669619Y-87765380D01*
X152669619Y-87193952D02*
X152622000Y-87146333D01*
X152526761Y-87098714D01*
X152383904Y-87098714D01*
X152288666Y-87146333D01*
X152241047Y-87241571D01*
X152241047Y-87765380D01*
X151622000Y-87765380D02*
X151717238Y-87717761D01*
X151764857Y-87670142D01*
X151812476Y-87574904D01*
X151812476Y-87289190D01*
X151764857Y-87193952D01*
X151717238Y-87146333D01*
X151622000Y-87098714D01*
X151479142Y-87098714D01*
X151383904Y-87146333D01*
X151336285Y-87193952D01*
X151288666Y-87289190D01*
X151288666Y-87574904D01*
X151336285Y-87670142D01*
X151383904Y-87717761D01*
X151479142Y-87765380D01*
X151622000Y-87765380D01*
X150145809Y-87479666D02*
X149669619Y-87479666D01*
X150241047Y-87765380D02*
X149907714Y-86765380D01*
X149574380Y-87765380D01*
X148812476Y-87098714D02*
X148812476Y-87765380D01*
X149241047Y-87098714D02*
X149241047Y-87622523D01*
X149193428Y-87717761D01*
X149098190Y-87765380D01*
X148955333Y-87765380D01*
X148860095Y-87717761D01*
X148812476Y-87670142D01*
X147907714Y-87765380D02*
X147907714Y-86765380D01*
X147907714Y-87717761D02*
X148002952Y-87765380D01*
X148193428Y-87765380D01*
X148288666Y-87717761D01*
X148336285Y-87670142D01*
X148383904Y-87574904D01*
X148383904Y-87289190D01*
X148336285Y-87193952D01*
X148288666Y-87146333D01*
X148193428Y-87098714D01*
X148002952Y-87098714D01*
X147907714Y-87146333D01*
X147431523Y-87765380D02*
X147431523Y-87098714D01*
X147431523Y-86765380D02*
X147479142Y-86813000D01*
X147431523Y-86860619D01*
X147383904Y-86813000D01*
X147431523Y-86765380D01*
X147431523Y-86860619D01*
X146812476Y-87765380D02*
X146907714Y-87717761D01*
X146955333Y-87670142D01*
X147002952Y-87574904D01*
X147002952Y-87289190D01*
X146955333Y-87193952D01*
X146907714Y-87146333D01*
X146812476Y-87098714D01*
X146669619Y-87098714D01*
X146574380Y-87146333D01*
X146526761Y-87193952D01*
X146479142Y-87289190D01*
X146479142Y-87574904D01*
X146526761Y-87670142D01*
X146574380Y-87717761D01*
X146669619Y-87765380D01*
X146812476Y-87765380D01*
X151336285Y-88748714D02*
X151098190Y-89415380D01*
X150860095Y-88748714D01*
X149955333Y-89415380D02*
X150526761Y-89415380D01*
X150241047Y-89415380D02*
X150241047Y-88415380D01*
X150336285Y-88558238D01*
X150431523Y-88653476D01*
X150526761Y-88701095D01*
X151622000Y-90065380D02*
X151622000Y-90779666D01*
X151669619Y-90922523D01*
X151764857Y-91017761D01*
X151907714Y-91065380D01*
X152002952Y-91065380D01*
X151241047Y-90065380D02*
X151002952Y-91065380D01*
X150812476Y-90351095D01*
X150622000Y-91065380D01*
X150383904Y-90065380D01*
X150002952Y-91065380D02*
X150002952Y-90065380D01*
X149669619Y-90779666D01*
X149336285Y-90065380D01*
X149336285Y-91065380D01*
%LPC*%
D11*
X144011225Y-88301000D03*
D12*
X155011225Y-93501000D03*
D11*
X157211225Y-88301000D03*
D13*
X161290000Y-97282000D03*
D14*
X161290000Y-89662000D03*
D13*
X158242000Y-97028000D03*
D14*
X150622000Y-97028000D03*
D15*
X165100000Y-93980000D03*
D16*
X165100000Y-91440000D03*
D14*
X143082000Y-97028000D03*
X148082000Y-97028000D03*
X160568000Y-85344000D03*
D17*
X163068000Y-85344000D03*
M02*
